<svg xmlns="http://www.w3.org/2000/svg" viewBox="0 0 2000 1167"><g id="black"><path d="M368.55,1111.21l-1.77-15.42H366c-6.83,9.61-20,18.21-37.42,18.21-24.78,0-37.42-17.45-37.42-35.15,0-29.58,26.29-45.76,73.57-45.51v-2.52c0-10.12-2.78-28.32-27.81-28.32a60.94,60.94,0,0,0-31.85,9.1L300,996.94c10.11-6.58,24.78-10.87,40.2-10.87,37.42,0,46.52,25.53,46.52,50v45.77c0,10.61.5,21,2,29.32Zm-3.28-62.44c-24.27-.51-51.83,3.79-51.83,27.55,0,14.42,9.61,21.24,21,21.24,15.93,0,26-10.11,29.58-20.48a23.14,23.14,0,0,0,1.27-7.08Z"/><path d="M422.66,1022c0-12.64-.25-23-1-33.12h19.72l1.26,20.22h.51c6.07-11.63,20.22-23,40.45-23,16.94,0,43.23,10.11,43.23,52.08v73.06H504.57v-70.53c0-19.72-7.33-36.16-28.31-36.16-14.67,0-26,10.37-29.83,22.76a31.72,31.72,0,0,0-1.52,10.36v73.57H422.66Z"/><path d="M588.77,953.71v35.14h31.85v16.94H588.77v66c0,15.17,4.29,23.77,16.68,23.77a49.41,49.41,0,0,0,12.9-1.52l1,16.69c-4.3,1.77-11.13,3-19.72,3-10.37,0-18.71-3.28-24-9.35-6.32-6.58-8.6-17.45-8.6-31.86v-66.74h-19V988.85h19V959.52Z"/><path d="M645.65,931.71H667.9v76.35h.51a41.29,41.29,0,0,1,15.92-15.67,45.76,45.76,0,0,1,22.76-6.32c16.43,0,42.73,10.11,42.73,52.33v72.81H727.57v-70.28c0-19.72-7.33-36.41-28.32-36.41-14.41,0-25.79,10.12-29.83,22.25-1.27,3-1.52,6.32-1.52,10.62v73.82H645.65Z"/><path d="M896.71,1049c0,45.25-31.35,65-60.93,65-33.12,0-58.66-24.28-58.66-63,0-41,26.8-65,60.68-65C872.94,986.07,896.71,1011.6,896.71,1049Zm-97.09,1.26c0,26.8,15.42,47,37.17,47,21.23,0,37.16-20,37.16-47.53,0-20.73-10.36-47-36.66-47S799.62,1027,799.62,1050.28Z"/><path d="M924.77,1022c0-12.64-.25-23-1-33.12h19.72l1.27,20.22h.5c6.07-11.63,20.23-23,40.45-23,16.94,0,43.24,10.11,43.24,52.08v73.06h-22.25v-70.53c0-19.72-7.33-36.16-28.32-36.16-14.66,0-26,10.37-29.83,22.76a32,32,0,0,0-1.52,10.36v73.57H924.77Z"/><path d="M1069.9,988.85l26.8,72.31c2.78,8.09,5.81,17.69,7.83,25h.51c2.28-7.33,4.8-16.68,7.84-25.53l24.27-71.8h23.51l-33.37,87.22c-15.93,42-26.8,63.46-42,76.61-10.87,9.6-21.74,13.4-27.31,14.41l-5.56-18.71a58.88,58.88,0,0,0,19.47-10.87,67.52,67.52,0,0,0,18.71-24.78c1-2.27,1.77-4,1.77-5.31a19.47,19.47,0,0,0-1.52-5.81l-45.25-112.76Z"/><path d="M1180.89,1028.79c0-15.67-.51-28.31-1-39.94h20l1,21h.51c9.1-14.91,23.51-23.76,43.48-23.76,29.58,0,51.83,25,51.83,62.19,0,44-26.8,65.74-55.62,65.74-16.18,0-30.34-7.08-37.67-19.22h-.51v66.49h-22Zm22,32.62a50.65,50.65,0,0,0,1,9.1,34.34,34.34,0,0,0,33.38,26c23.51,0,37.16-19.21,37.16-47.28,0-24.52-12.89-45.51-36.4-45.51-15.17,0-29.33,10.88-33.63,27.56a36,36,0,0,0-1.52,9.1Z"/><path d="M1349.52,954.46c.25,7.59-5.31,13.66-14.16,13.66-7.84,0-13.4-6.07-13.4-13.66a13.56,13.56,0,0,1,13.91-13.9C1344.21,940.56,1349.52,946.63,1349.52,954.46Zm-24.78,156.75V988.85H1347v122.36Z"/><path d="M1383.9,931.71h22.25v179.5H1383.9Z"/><path d="M1443.57,931.71h22.25v179.5h-22.25Z"/><path d="M1614,1049c0,45.25-31.35,65-60.93,65-33.12,0-58.65-24.28-58.65-63,0-41,26.8-65,60.67-65C1590.21,986.07,1614,1011.6,1614,1049Zm-97.08,1.26c0,26.8,15.42,47,37.16,47,21.24,0,37.17-20,37.17-47.53,0-20.73-10.37-47-36.66-47S1516.89,1027,1516.89,1050.28Z"/><path d="M1668.84,953.71v35.14h31.85v16.94h-31.85v66c0,15.17,4.29,23.77,16.68,23.77a49.41,49.41,0,0,0,12.9-1.52l1,16.69c-4.3,1.77-11.13,3-19.72,3-10.37,0-18.71-3.28-24-9.35-6.32-6.58-8.6-17.45-8.6-31.86v-66.74h-19V988.85h19V959.52Z"/><polyline id="bottom_bar" data-name="bottom bar" points="0.43 555.82 1007.74 539.88 2000.43 555.82"/><polyline id="top_bar" data-name="top bar" points="0 460.06 1007.31 476 2000 460.06"/><path d="M1556.32,558c25,27,36.11,58.44,36.11,98.17,0,87.87-67.19,148.61-182.2,148.61-77.53,0-151.18-25.85-201.58-56.86l-28.43,94.33c46.52,31,138.27,55.57,222.26,55.57,205.46,0,305-116.3,305-250.69,0-33.32-5.1-62.77-15.22-89.13Z"/><path d="M1366.68,458H1613.1c-33.71-25.2-76.38-46.84-127.92-66.73C1365,344.75,1312,304.69,1312,223.29c0-59.45,45.22-130.52,164.11-130.52,78.82,0,137,25.85,165.4,41.35l31-91.74C1633.79,20.41,1569.17-.27,1480-.27c-169.28,0-281.7,100.8-281.7,236.48C1198.31,340.07,1261.22,408.78,1366.68,458Z"/><path d="M947.59,558C916.31,701.8,823.17,807.36,680.14,807.36c-143.24,0-236.56-109.13-267-249.36H290.57c35.94,207.23,183.82,341.11,383.11,341.11,191.13,0,352.64-117.54,394.13-341.11Z"/><path d="M402.33,458c0-1.14,0-2.27,0-3.41,0-191.25,93-363.11,279.12-363.11,187.37,0,277.82,180.91,277.82,354.06q0,6.25-.14,12.46h118.8q.21-8.73.22-17.62C1078.14,181.93,924.37-.27,686.6-.27,454-.27,282.14,180.64,282.14,457.17c0,.28,0,.55,0,.83Z"/></g></svg>