<svg xmlns="http://www.w3.org/2000/svg" viewBox="0 0 4340.43 3417.27"><g id="OS_cutted"><path d="M2250.11,2431.31a1008.63,1008.63,0,0,0,6.78,103.61l1001.22-15.85,985,15.82a1007.85,1007.85,0,0,0,6.78-103.57l-992.26,15.93Z" transform="translate(90 0.27)" style="fill:#1a1a1a"/><path d="M2257.15,2537c59.28,495.7,481.18,880,992.85,880s933.57-384.3,992.85-880Zm625.35,386c-224.09,0-390.37-150.53-430.78-383.55h137.85c34.2,157.68,139.13,280.39,300.19,280.39,160.82,0,265.55-118.7,300.72-280.39h135.18C3279,2790.84,3097.41,2923,2882.5,2923Zm819.46-1.45c-94.44,0-197.6-27.61-249.91-62.48L3484,2753c56.66,34.87,139.48,63.93,226.66,63.93,129.32,0,204.87-68.29,204.87-167.09,0-44.68-12.47-80-40.6-110.39h152.8c11.38,29.64,17.11,62.76,17.11,100.22C4044.86,2790.78,3933,2921.55,3702,2921.55Z" transform="translate(90 0.27)" style="fill:#1a1a1a"/><path d="M4249.92,2429.33c.05-4.11.08-8.21.08-12.33,0-552.28-447.72-1000-1000-1000S2250,1864.72,2250,2417c0,4.12,0,8.22.08,12.33Zm-460.78-517.6c100.26,0,172.9,23.25,216.49,48l-34.87,103.16c-32-17.43-97.35-46.49-186-46.49-133.67,0-184.53,79.91-184.53,146.75,0,91.53,59.58,136.58,194.7,188.88,58,22.37,105.93,46.7,143.84,75H3661.71c-118.58-55.33-189.32-132.59-189.32-249.38C3472.39,2025.06,3598.8,1911.73,3789.14,1911.73Zm-892.11,0c267.34,0,440.24,204.87,440.24,495.47q0,10-.24,19.81H3203.45q.15-7,.15-14c0-194.7-101.71-398.12-312.39-398.12-209.22,0-313.84,193.25-313.84,408.29,0,1.28,0,2.56,0,3.83H2442.25v-.92C2442.25,2115.15,2635.49,1911.73,2897,1911.73Z" transform="translate(90 0.27)" style="fill:#1a1a1a"/></g><g id="OS"><circle cx="1090" cy="2417.27" r="1000" style="fill:#1a1a1a"/><polyline id="bottom_bar" data-name="bottom bar" points="0.48 2537.27 1133.12 2519.34 2249.3 2537.27" style="fill:#fff"/><polyline id="top_bar" data-name="top bar" points="0 2429.59 1132.63 2447.52 2248.82 2429.59" style="fill:#fff"/><path d="M1625,2539.45c28.13,30.38,40.6,65.71,40.6,110.39,0,98.8-75.55,167.09-204.87,167.09-87.18,0-170-29.06-226.66-63.93l-32,106.07c52.31,34.87,155.47,62.48,249.91,62.48,231,0,342.9-130.77,342.9-281.88,0-37.46-5.73-70.58-17.11-100.22Z" transform="translate(90 0.27)" style="fill:#fff"/><path d="M1411.71,2427h277.08c-37.91-28.33-85.88-52.66-143.84-75-135.12-52.3-194.7-97.35-194.7-188.88,0-66.84,50.86-146.75,184.53-146.75,88.63,0,154,29.06,186,46.49l34.87-103.16c-43.58-24.7-116.23-48-216.49-48-190.34,0-316.75,113.33-316.75,265.9C1222.39,2294.41,1293.13,2371.68,1411.71,2427Z" transform="translate(90 0.27)" style="fill:#fff"/><path d="M940.48,2539.45c-35.17,161.69-139.9,280.39-300.72,280.39-161.06,0-266-122.71-300.19-280.39H201.72C242.13,2772.47,408.41,2923,632.5,2923c214.9,0,396.5-132.16,443.16-383.55Z" transform="translate(90 0.27)" style="fill:#fff"/><path d="M327.39,2427c0-1.27,0-2.55,0-3.83,0-215,104.62-408.29,313.84-408.29,210.68,0,312.39,203.42,312.39,398.12q0,7-.15,14H1087q.24-9.81.24-19.81c0-290.6-172.9-495.47-440.24-495.47-261.54,0-454.78,203.42-454.78,514.36v.92Z" transform="translate(90 0.27)" style="fill:#fff"/></g><g id="white"><text transform="translate(2622.34 1111.48)" style="font-size:252.8288116455078px;fill:#fff;font-family:MyriadPro-Regular, Myriad Pro">a<tspan x="121.86" y="0" style="letter-spacing:-0.003999664682867908em">n</tspan><tspan x="261.17" y="0" style="letter-spacing:0.00000193127217907673em">tho</tspan><tspan x="623.97" y="0" style="letter-spacing:-0.01298780540429101em">n</tspan><tspan x="761.01" y="0">ypillot</tspan></text><polyline id="bottom_bar-2" data-name="bottom bar" points="2340.43 556.08 3347.74 540.14 4340.43 556.08" style="fill:#fff"/><polyline id="top_bar-2" data-name="top bar" points="2340 460.32 3347.31 476.27 4340 460.32" style="fill:#fff"/><path d="M3806.32,558c25,27,36.11,58.44,36.11,98.17,0,87.87-67.19,148.61-182.2,148.61-77.53,0-151.18-25.85-201.58-56.86l-28.43,94.33c46.52,31,138.27,55.57,222.26,55.57,205.46,0,305-116.3,305-250.69,0-33.32-5.1-62.77-15.22-89.13Z" transform="translate(90 0.27)" style="fill:#fff"/><path d="M3616.68,458H3863.1c-33.71-25.2-76.38-46.84-127.92-66.73C3615,344.75,3562,304.69,3562,223.29c0-59.45,45.22-130.52,164.11-130.52,78.82,0,137,25.85,165.4,41.35l31-91.74C3883.79,20.41,3819.17-.27,3730-.27c-169.28,0-281.7,100.8-281.7,236.48C3448.31,340.07,3511.22,408.78,3616.68,458Z" transform="translate(90 0.27)" style="fill:#fff"/><path d="M3197.59,558c-31.28,143.8-124.42,249.36-267.45,249.36-143.24,0-236.56-109.13-267-249.36h-122.6c35.94,207.23,183.82,341.11,383.11,341.11,191.13,0,352.64-117.54,394.13-341.11Z" transform="translate(90 0.27)" style="fill:#fff"/><path d="M2652.33,458c0-1.14,0-2.27,0-3.41,0-191.25,93-363.11,279.12-363.11,187.37,0,277.82,180.91,277.82,354.06q0,6.25-.14,12.46h118.8q.21-8.73.22-17.62c0-258.45-153.77-440.65-391.54-440.65-232.59,0-404.46,180.91-404.46,457.44,0,.28,0,.55,0,.83Z" transform="translate(90 0.27)" style="fill:#fff"/></g><g id="black"><text transform="translate(372.34 1111.48)" style="font-size:252.8288116455078px;font-family:MyriadPro-Regular, Myriad Pro">a<tspan x="121.86" y="0" style="letter-spacing:-0.003999664682867908em">n</tspan><tspan x="261.17" y="0" style="letter-spacing:0.00000193127217907673em">tho</tspan><tspan x="623.97" y="0" style="letter-spacing:-0.01298780540429101em">n</tspan><tspan x="761.01" y="0">ypillot</tspan></text><polyline id="bottom_bar-3" data-name="bottom bar" points="90.43 556.08 1097.74 540.14 2090.43 556.08"/><polyline id="top_bar-3" data-name="top bar" points="90 460.32 1097.31 476.27 2090 460.32"/><path d="M1556.32,558c25,27,36.11,58.44,36.11,98.17,0,87.87-67.19,148.61-182.2,148.61-77.53,0-151.18-25.85-201.58-56.86l-28.43,94.33c46.52,31,138.27,55.57,222.26,55.57,205.46,0,305-116.3,305-250.69,0-33.32-5.1-62.77-15.22-89.13Z" transform="translate(90 0.27)"/><path d="M1366.68,458H1613.1c-33.71-25.2-76.38-46.84-127.92-66.73C1365,344.75,1312,304.69,1312,223.29c0-59.45,45.22-130.52,164.11-130.52,78.82,0,137,25.85,165.4,41.35l31-91.74C1633.79,20.41,1569.17-.27,1480-.27c-169.28,0-281.7,100.8-281.7,236.48C1198.31,340.07,1261.22,408.78,1366.68,458Z" transform="translate(90 0.27)"/><path d="M947.59,558C916.31,701.8,823.17,807.36,680.14,807.36c-143.24,0-236.56-109.13-267-249.36H290.57c35.94,207.23,183.82,341.11,383.11,341.11,191.13,0,352.64-117.54,394.13-341.11Z" transform="translate(90 0.27)"/><path d="M402.33,458c0-1.14,0-2.27,0-3.41,0-191.25,93-363.11,279.12-363.11,187.37,0,277.82,180.91,277.82,354.06q0,6.25-.14,12.46h118.8q.21-8.73.22-17.62C1078.14,181.93,924.37-.27,686.6-.27,454-.27,282.14,180.64,282.14,457.17c0,.28,0,.55,0,.83Z" transform="translate(90 0.27)"/></g></svg>